<svg width="17" height="17" viewBox="0 0 17 17" fill="none" xmlns="http://www.w3.org/2000/svg">
<path d="M8.25008 11.5833C9.13414 11.5833 9.98198 11.2321 10.6071 10.607C11.2322 9.9819 11.5834 9.13405 11.5834 8.25C11.5834 7.36594 11.2322 6.5181 10.6071 5.89297C9.98198 5.26785 9.13414 4.91666 8.25008 4.91666C7.36603 4.91666 6.51818 5.26785 5.89306 5.89297C5.26794 6.5181 4.91675 7.36594 4.91675 8.25C4.91675 9.13405 5.26794 9.9819 5.89306 10.607C6.51818 11.2321 7.36603 11.5833 8.25008 11.5833Z" stroke="#F9F9F9" stroke-width="1.5" stroke-linecap="round" stroke-linejoin="round"/>
<path d="M0.75 11.5833V4.91667C0.75 3.8116 1.18899 2.75179 1.97039 1.97039C2.75179 1.18899 3.8116 0.75 4.91667 0.75H11.5833C12.6884 0.75 13.7482 1.18899 14.5296 1.97039C15.311 2.75179 15.75 3.8116 15.75 4.91667V11.5833C15.75 12.6884 15.311 13.7482 14.5296 14.5296C13.7482 15.311 12.6884 15.75 11.5833 15.75H4.91667C3.8116 15.75 2.75179 15.311 1.97039 14.5296C1.18899 13.7482 0.75 12.6884 0.75 11.5833Z" stroke="#F9F9F9" stroke-width="1.5"/>
<path d="M12.8333 3.675L12.8416 3.66583" stroke="#F9F9F9" stroke-width="1.5" stroke-linecap="round" stroke-linejoin="round"/>
</svg>
