<svg width="20" height="20" viewBox="0 0 20 20" fill="none" xmlns="http://www.w3.org/2000/svg">
<path d="M10.0001 13.3333C10.8841 13.3333 11.732 12.9821 12.3571 12.357C12.9822 11.7319 13.3334 10.8841 13.3334 10C13.3334 9.11594 12.9822 8.2681 12.3571 7.64297C11.732 7.01785 10.8841 6.66666 10.0001 6.66666C9.11603 6.66666 8.26818 7.01785 7.64306 7.64297C7.01794 8.2681 6.66675 9.11594 6.66675 10C6.66675 10.8841 7.01794 11.7319 7.64306 12.357C8.26818 12.9821 9.11603 13.3333 10.0001 13.3333Z" stroke="#927642" stroke-width="1.5" stroke-linecap="round" stroke-linejoin="round"/>
<path d="M2.5 13.3333V6.66667C2.5 5.5616 2.93899 4.50179 3.72039 3.72039C4.50179 2.93899 5.5616 2.5 6.66667 2.5H13.3333C14.4384 2.5 15.4982 2.93899 16.2796 3.72039C17.061 4.50179 17.5 5.5616 17.5 6.66667V13.3333C17.5 14.4384 17.061 15.4982 16.2796 16.2796C15.4982 17.061 14.4384 17.5 13.3333 17.5H6.66667C5.5616 17.5 4.50179 17.061 3.72039 16.2796C2.93899 15.4982 2.5 14.4384 2.5 13.3333Z" stroke="#927642" stroke-width="1.5"/>
<path d="M14.5833 5.425L14.5916 5.41583" stroke="#927642" stroke-width="1.5" stroke-linecap="round" stroke-linejoin="round"/>
</svg>
