<svg width="20" height="20" viewBox="0 0 20 20" fill="none" xmlns="http://www.w3.org/2000/svg">
<path d="M5.78329 4.16667C5.78306 4.6087 5.60726 5.03253 5.29454 5.34494C4.98182 5.65734 4.55781 5.83272 4.11578 5.8325C3.67376 5.83228 3.24992 5.65647 2.93752 5.34376C2.62511 5.03104 2.44973 4.60703 2.44995 4.165C2.45017 3.72297 2.62598 3.29914 2.9387 2.98673C3.25141 2.67433 3.67542 2.49895 4.11745 2.49917C4.55948 2.49939 4.98331 2.6752 5.29572 2.98791C5.60812 3.30063 5.78351 3.72464 5.78329 4.16667ZM5.83329 7.06667H2.49995V17.5H5.83329V7.06667ZM11.1 7.06667H7.78329V17.5H11.0666V12.025C11.0666 8.975 15.0416 8.69167 15.0416 12.025V17.5H18.3333V10.8917C18.3333 5.75 12.45 5.94167 11.0666 8.46667L11.1 7.06667Z" fill="#927642"/>
</svg>
