<svg width="16" height="15" viewBox="0 0 16 15" fill="none" xmlns="http://www.w3.org/2000/svg">
<path d="M3.33333 1.6675C3.33311 2.10953 3.15731 2.53336 2.84459 2.84577C2.53187 3.15817 2.10786 3.33355 1.66583 3.33333C1.22381 3.33311 0.799971 3.15731 0.487566 2.84459C0.175162 2.53187 -0.000220805 2.10786 2.08635e-07 1.66583C0.000221222 1.22381 0.176028 0.799971 0.488745 0.487566C0.801462 0.175162 1.22547 -0.000220805 1.6675 2.08635e-07C2.10953 0.000221222 2.53336 0.176028 2.84577 0.488745C3.15817 0.801462 3.33355 1.22547 3.33333 1.6675ZM3.38333 4.5675H0.0500002V15.0008H3.38333V4.5675ZM8.65 4.5675H5.33333V15.0008H8.61667V9.52583C8.61667 6.47583 12.5917 6.1925 12.5917 9.52583V15.0008H15.8833V8.3925C15.8833 3.25083 10 3.4425 8.61667 5.9675L8.65 4.5675Z" fill="#F9F9F9"/>
</svg>
